<svg width="272" height="179" viewBox="0 0 272 179" fill="none" xmlns="http://www.w3.org/2000/svg">
<path d="M259.245 54.5035L264.767 82.9792L264.638 83.1473L201.469 133.351L195.947 104.883L195.9 104.783L259.138 54.5244L259.245 54.5035Z" fill="#2C2526"/>
<path d="M209.991 4.82105L259.14 54.5243L195.902 104.783L49.8177 146.049L8.70505 104.35L118.619 26.6196L209.991 4.82105Z" fill="#2C2526"/>
<path d="M195.9 104.783L195.947 104.883L201.469 133.351L201.404 133.402L55.3108 174.672L55.1179 174.475L49.6369 146.196L49.8155 146.049L195.9 104.783Z" fill="#2C2526"/>
<path d="M8.70289 104.35L49.8155 146.049L49.6369 146.196L55.1179 174.475L14.2024 132.973L14.1558 132.985L8.58783 104.372L8.70289 104.35Z" fill="#2C2526"/>
<path d="M264.638 83.1473L201.469 133.351L201.403 133.402L55.3107 174.672L55.1179 174.475L14.2024 132.973" stroke="#F3EFE1" stroke-width="1.7143" stroke-miterlimit="10"/>
<path d="M8.70531 104.35L118.619 26.6197L209.991 4.82115L259.141 54.5244L195.902 104.783L49.8179 146.049L8.70531 104.35Z" stroke="#F3EFE1" stroke-width="1.7143" stroke-miterlimit="10"/>
<path d="M259.237 54.4585L259.245 54.5035L264.767 82.9792" stroke="#F3EFE1" stroke-width="1.7143" stroke-miterlimit="10"/>
<path d="M195.947 104.883L201.469 133.351L201.477 133.404" stroke="#F3EFE1" stroke-width="1.7143" stroke-miterlimit="10"/>
<path d="M49.6369 146.196L55.1179 174.475L55.1672 174.716" stroke="#F3EFE1" stroke-width="1.7143" stroke-miterlimit="10"/>
<path d="M8.56647 104.265L8.58785 104.372L14.1558 132.985L14.17 133.054" stroke="#F3EFE1" stroke-width="1.7143" stroke-miterlimit="10"/>
</svg>
